<svg width="40" height="16" viewBox="0 0 40 16" fill="none" xmlns="http://www.w3.org/2000/svg">
<path d="M16.84 7.108C16.84 6.26 17.064 5.632 17.512 5.224C17.968 4.808 18.664 4.6 19.6 4.6H22.492V5.296H19.6C18.952 5.296 18.472 5.444 18.16 5.74C17.856 6.036 17.704 6.492 17.704 7.108V8.692H21.88V9.388H17.704V13H16.84V7.108ZM26.5833 13C25.6633 13 24.9793 12.796 24.5312 12.388C24.0913 11.972 23.8713 11.34 23.8713 10.492V4.6H24.7353V10.492C24.7353 11.108 24.8833 11.564 25.1793 11.86C25.4833 12.156 25.9513 12.304 26.5833 12.304H29.2833V13H26.5833ZM30.8392 4.6H31.7032V13H30.8392V4.6ZM36.8358 8.824L39.6558 13H38.6598L36.2718 9.46L33.8838 13H32.8998L35.7798 8.728L33.0078 4.6H33.9918L36.3438 8.092L38.6958 4.6H39.6678L36.8358 8.824Z" fill="white"/>
<path d="M0 12V4.92H0.36V12H0ZM1.44 12V4.92H2.16V12H1.44ZM3.24 12V4.92H3.6V12H3.24ZM3.96094 12V4.92H4.32094V12H3.96094ZM5.40094 12V4.92H6.12094V12H5.40094ZM6.48094 12V4.92H7.56094V12H6.48094ZM7.92188 12V4.92H8.64188V12H7.92188ZM9.72188 12V4.92H10.0819V12H9.72188ZM11.1619 12V4.92H11.5219V12H11.1619ZM11.8828 12V4.92H12.9628V12H11.8828ZM14.0428 12V4.92H14.4028V12H14.0428ZM14.7628 12V4.92H15.4828V12H14.7628Z" fill="white"/>
</svg>
